<?xml version="1.0" standalone="no"?>
<!DOCTYPE svg PUBLIC "-//W3C//DTD SVG 20010904//EN"
 "http://www.w3.org/TR/2001/REC-SVG-20010904/DTD/svg10.dtd">
<svg version="1.0" xmlns="http://www.w3.org/2000/svg"
 width="150.000000pt" height="150.000000pt" viewBox="0 0 150.000000 150.000000"
 preserveAspectRatio="xMidYMid meet">

<g transform="translate(0.000000,150.000000) scale(0.100000,-0.100000)"
fill="#000000" stroke="none">
<path d="M10 1490 c0 -7 20 -10 50 -9 65 3 65 19 0 19 -28 0 -50 -5 -50 -10z"/>
<path d="M140 1490 c0 -5 7 -10 16 -10 9 0 22 -7 29 -16 6 -9 23 -18 37 -19
15 -2 41 -6 60 -11 18 -4 50 -6 71 -5 27 1 37 -2 37 -13 0 -13 6 -12 34 5 19
11 39 18 44 17 6 -2 17 6 26 17 14 19 15 19 30 -17 18 -43 34 -47 59 -18 18
22 43 26 49 9 2 -6 13 -9 23 -6 19 5 19 5 -2 12 -13 4 -23 14 -23 22 0 8 4 12
8 9 5 -3 39 0 77 5 45 7 70 8 74 1 3 -6 23 -13 44 -17 34 -7 51 -29 26 -37
-19 -6 2 -36 33 -47 17 -6 29 -14 26 -17 -4 -3 -20 2 -37 10 -16 9 -40 16 -53
16 -14 0 -18 3 -11 8 6 4 -18 7 -53 7 -35 0 -64 -3 -64 -6 0 -4 -16 -10 -36
-14 -55 -10 -112 -51 -144 -103 -15 -26 -45 -72 -64 -103 -39 -60 -47 -82 -51
-144 -1 -22 -6 -48 -10 -58 -7 -17 -9 -17 -27 2 -24 27 -42 26 -62 -1 -12 -16
-18 -19 -22 -10 -3 6 -10 9 -16 6 -7 -4 -8 4 -3 25 5 22 2 35 -9 47 -9 8 -16
12 -16 8 0 -3 -6 -1 -14 5 -8 6 -20 10 -27 9 -8 -2 -13 3 -11 10 1 6 -2 12 -8
12 -5 0 -10 -4 -10 -9 0 -10 -39 -25 -55 -21 -5 2 -26 6 -45 9 -27 5 -39 14
-52 41 -17 34 -18 14 -18 -532 l0 -568 750 0 750 0 0 164 0 164 -77 14 -78 15
67 4 c36 2 64 1 62 -3 -3 -4 2 -5 10 -2 13 5 16 25 16 105 0 96 -1 99 -22 100
l-23 0 23 11 c21 11 22 15 22 175 0 102 -4 163 -10 163 -5 0 -10 -4 -10 -9 0
-5 -14 -14 -32 -20 -36 -13 -98 -5 -98 13 0 6 -4 5 -9 -3 -8 -12 -14 -13 -36
-3 -15 7 -31 10 -36 7 -5 -4 -9 -2 -9 3 0 6 23 8 53 6 28 -2 59 1 67 6 13 8
13 10 -1 10 -10 0 -20 11 -23 25 -4 14 -11 23 -15 20 -5 -3 -7 9 -4 26 2 17
-1 37 -8 46 -12 13 -14 13 -20 -4 -5 -12 -8 -4 -8 25 -1 52 -16 55 -29 5 -5
-21 -10 -30 -11 -20 -1 9 -6 17 -12 17 -6 0 -8 9 -4 20 7 21 -10 28 -18 8 -4
-10 -8 -10 -15 1 -8 11 -11 11 -16 0 -3 -8 -4 0 -1 18 2 18 0 35 -5 38 -6 3
-10 1 -10 -4 0 -6 -9 -11 -21 -11 -11 0 -17 -4 -14 -10 10 -16 -12 -12 -30 6
-8 9 -22 13 -31 10 -9 -3 -17 1 -20 12 -17 51 -30 78 -53 106 -19 23 -20 27
-6 17 11 -8 2 3 -20 25 -22 21 -43 38 -47 36 -5 -2 -8 2 -8 7 0 6 5 11 12 11
6 0 1 9 -12 20 -12 11 -26 17 -31 15 -4 -3 -10 -1 -13 4 -9 14 23 41 56 48 16
3 35 14 41 24 17 28 49 23 88 -11 18 -17 35 -26 37 -20 5 14 22 2 22 -16 0 -8
-11 -14 -27 -15 -25 0 -26 -1 -8 -9 28 -12 95 -12 95 0 0 6 16 10 35 10 22 0
38 6 41 15 4 8 12 15 20 15 24 0 64 23 64 37 0 7 5 13 10 13 6 0 10 5 10 10 0
16 -767 14 -773 -2 -4 -10 -6 -10 -6 0 -1 15 -451 18 -451 2z m1052 -77 c-2
-7 -11 -13 -19 -13 -10 0 -13 6 -9 16 3 9 9 28 13 42 l7 27 6 -30 c4 -16 4
-36 2 -42z m-462 -159 c21 -5 47 -51 55 -96 5 -27 13 -38 29 -40 25 -4 37 -48
12 -48 -9 0 -16 -4 -16 -9 0 -5 -27 -8 -60 -6 -72 5 -90 -9 -90 -66 0 -44 24
-55 34 -15 6 25 38 44 44 27 2 -6 16 -11 30 -12 24 0 25 -1 7 -9 -15 -7 -16
-9 -4 -9 9 -1 22 5 28 13 6 8 23 16 36 19 23 4 25 1 25 -29 0 -18 -6 -39 -14
-46 -23 -24 -54 -92 -57 -128 -4 -43 -27 -64 -46 -44 -8 7 -20 11 -28 8 -8 -4
-15 -1 -15 5 0 6 6 11 14 11 7 0 20 7 27 17 13 15 11 16 -14 11 -27 -5 -46 5
-29 16 5 3 7 17 5 30 -5 22 -8 24 -31 15 -15 -6 -32 -15 -39 -20 -17 -15 -5
-39 21 -39 19 -1 19 -2 3 -11 -20 -12 -110 -1 -102 12 3 4 -4 18 -15 29 -28
28 -40 63 -40 117 0 38 2 44 14 34 10 -9 16 -9 21 -1 4 6 15 8 26 5 22 -7 59
2 59 15 0 5 -7 16 -16 25 -12 12 -27 14 -60 9 -37 -5 -44 -4 -44 10 0 11 4 14
13 10 9 -6 8 -3 -1 8 -10 12 -11 22 -3 36 5 10 9 32 9 48 -2 54 22 87 72 100
40 11 97 10 140 -2z m-550 -210 c0 -8 -5 -12 -10 -9 -6 4 -8 11 -5 16 9 14 15
11 15 -7z m410 -18 c0 -2 -11 -6 -25 -8 -14 -3 -25 -1 -25 3 0 5 11 9 25 9 14
0 25 -2 25 -4z m173 -3 c-7 -2 -21 -2 -30 0 -10 3 -4 5 12 5 17 0 24 -2 18 -5z
m-521 -12 c8 11 9 11 5 -1 -2 -8 -11 -16 -20 -18 -13 -3 -15 1 -10 14 5 13 8
14 11 5 4 -11 6 -11 14 0z m375 -231 c23 0 45 -4 48 -10 3 -5 -3 -10 -14 -10
-37 0 -22 -19 17 -22 22 -2 36 -8 35 -15 -2 -8 4 -10 15 -6 32 11 -1 -15 -40
-31 -36 -15 -38 -15 -67 10 -17 14 -31 30 -31 36 0 6 -11 19 -25 30 -14 11
-25 26 -25 34 0 13 3 13 22 0 12 -9 41 -16 65 -16z m87 -205 c8 -8 19 -15 25
-15 6 0 11 -4 11 -10 0 -5 7 -10 15 -10 8 0 15 -4 15 -8 0 -11 33 -11 41 -1 3
5 20 11 37 13 27 3 38 -3 62 -31 17 -19 28 -38 25 -43 -3 -5 -6 -43 -7 -85 -1
-42 -5 -78 -10 -81 -4 -3 -8 -12 -8 -20 0 -8 4 -12 10 -9 6 4 7 -1 3 -11 -5
-13 -3 -16 10 -11 29 11 18 -2 -25 -30 -24 -15 -45 -31 -48 -34 -3 -3 -20 -14
-39 -24 -30 -15 -43 -16 -115 -5 -107 15 -213 47 -237 71 -27 27 -25 67 4 78
23 9 54 39 50 50 -1 3 2 22 7 42 11 40 53 85 70 74 6 -3 9 -1 8 6 -2 7 2 13 9
14 7 0 18 6 25 13 6 6 18 12 25 12 10 0 12 9 7 35 -7 38 4 45 30 20z m736 -47
c0 -6 -7 -7 -16 -4 -9 3 -20 6 -25 6 -6 0 -8 4 -5 9 8 12 46 2 46 -11z m10
-38 c0 -4 -7 -11 -16 -14 -8 -3 -13 -10 -10 -14 3 -5 -8 -7 -23 -4 -19 3 -30
-1 -34 -12 -4 -10 -1 -16 8 -16 8 0 15 -5 15 -11 0 -5 4 -8 9 -4 5 3 12 1 16
-5 4 -6 -8 -10 -30 -10 -22 0 -38 6 -41 15 -4 8 -12 15 -20 15 -8 0 -14 7 -14
16 0 8 -4 13 -9 9 -5 -3 -12 -1 -16 4 -3 6 7 10 22 10 61 1 112 13 107 26 -4
10 1 12 15 8 12 -3 21 -9 21 -13z m25 -80 c17 -7 15 -9 -12 -9 -18 -1 -33 4
-33 9 0 12 17 12 45 0z m-40 -30 c3 -5 -1 -10 -10 -10 -9 0 -13 5 -10 10 3 6
8 10 10 10 2 0 7 -4 10 -10z m-1390 -20 c3 -5 1 -10 -4 -10 -6 0 -11 5 -11 10
0 6 2 10 4 10 3 0 8 -4 11 -10z m55 -21 c-12 -8 -9 -9 10 -5 21 4 26 1 26 -14
0 -11 -3 -19 -6 -17 -3 1 -17 9 -32 16 -34 17 -36 31 -5 31 18 0 19 -2 7 -11z
m1077 -40 c-10 -6 -25 -8 -32 -5 -8 3 -17 1 -19 -3 -3 -5 -27 -14 -53 -21 -27
-7 -54 -18 -61 -23 -7 -5 -15 -7 -19 -4 -3 4 11 14 33 22 21 9 53 22 69 30 37
17 111 21 82 4z m-981 -78 c-7 -11 -66 -20 -66 -10 0 4 12 10 28 12 15 2 31 5
35 6 5 0 6 -3 3 -8z m-43 -98 c-7 -2 -19 -2 -25 0 -7 3 -2 5 12 5 14 0 19 -2
13 -5z"/>
<path d="M560 970 c0 -5 7 -10 15 -10 8 0 15 5 15 10 0 6 -7 10 -15 10 -8 0
-15 -4 -15 -10z"/>
<path d="M590 861 c0 -5 5 -13 10 -16 6 -3 10 -2 10 4 0 5 -4 13 -10 16 -5 3
-10 2 -10 -4z"/>
<path d="M1430 1480 c0 -16 7 -20 35 -20 39 0 42 4 21 26 -22 21 -56 18 -56
-6z"/>
<path d="M0 1445 c0 -10 11 -15 35 -15 24 0 35 5 35 15 0 10 -11 15 -35 15
-24 0 -35 -5 -35 -15z"/>
<path d="M710 1425 c0 -17 9 -19 28 -6 11 7 10 10 -3 15 -23 9 -25 8 -25 -9z"/>
<path d="M920 1396 c0 -2 7 -7 16 -10 8 -3 12 -2 9 4 -6 10 -25 14 -25 6z"/>
<path d="M550 1374 c0 -8 5 -12 10 -9 6 3 10 10 10 16 0 5 -4 9 -10 9 -5 0
-10 -7 -10 -16z"/>
</g>
</svg>
